# xmcd
#
# Track frame offsets: 
#        150
#        18355
#        35415
#        47307
#        66799
#        89116
#        103164
#        120898
#        135438
#        154421
#        170297
#        184651
#        201154
#        210276
#        231007
#        250684
#        265479
#        286422
#
# Disc length: 3982 seconds
#
# Revision: 10
# Processed by: cddbd v1.5.2PL0 Copyright (c) Steve Scherf et al.
# Submitted via: ExactAudioCopy v1.0b3
#
DISCID=f20f8c12
DTITLE=Nelson, Willie - To All The Girls...
DYEAR=2013
DGENRE=Country
TTITLE0=Nelson, Willie with Dolly Parton - From Here To The Moon And B
TTITLE0=ack
TTITLE1=Nelson, Willie with Miranda Lambert - She Was No Good For Me
TTITLE2=Nelson, Willie with The Secret Sisters - It Won't Be Very Long
TTITLE3=Nelson, Willie with Roseanne Cash - Please Don't Tell Me How T
TTITLE3=he Story Ends
TTITLE4=Nelson, Willie with Sheryl Crow - Far Away Places
TTITLE5=Nelson, Willie with Wynonna Judd - Bloody Mary Morning
TTITLE6=Nelson, Willie with Carrie Underwood - Always On My Mind
TTITLE7=Nelson, Willie with Loretta Lynn - Somewhere Between
TTITLE8=Nelson, Willie with Alison Krauss - No Mas Amor
TTITLE9=Nelson, Willie with Melonie Cannon - Back To Earth
TTITLE10=Nelson, Willie with Mavis Staples - Grandma's Hands
TTITLE11=Nelson, Willie with Norah Jones - Walkin'
TTITLE12=Nelson, Willie with Shelby Lynne - Till The End Of The World
TTITLE13=Nelson, Willie with Lily Meola - Will You Remember Mine
TTITLE14=Nelson, Willie with Emmmylou Harris - Dry Lightning
TTITLE15=Nelson, Willie with Brandi Carlile - Making Believe
TTITLE16=Nelson, Willie with Paula Nelson - Have You Ever Seen The Rai
TTITLE16=n
TTITLE17=Nelson, Willie with Tina Rose - After The Fire Is Gone
EXTD=YEAR: 2013
EXTT0=
EXTT1=
EXTT2=
EXTT3=
EXTT4=
EXTT5=
EXTT6=
EXTT7=
EXTT8=
EXTT9=
EXTT10=
EXTT11=
EXTT12=
EXTT13=
EXTT14=
EXTT15=
EXTT16=
EXTT17=
PLAYORDER=
